<?xml version="1.0" encoding="UTF-8" standalone="no"?>
<!-- Created with Inkscape (http://www.inkscape.org/) -->

<svg
   xmlns:dc="http://purl.org/dc/elements/1.1/"
   xmlns:cc="http://creativecommons.org/ns#"
   xmlns:rdf="http://www.w3.org/1999/02/22-rdf-syntax-ns#"
   xmlns:svg="http://www.w3.org/2000/svg"
   xmlns="http://www.w3.org/2000/svg"
   xmlns:xlink="http://www.w3.org/1999/xlink"
   xmlns:sodipodi="http://sodipodi.sourceforge.net/DTD/sodipodi-0.dtd"
   xmlns:inkscape="http://www.inkscape.org/namespaces/inkscape"
   width="210mm"
   height="70mm"
   viewBox="0 0 210 70"
   version="1.1"
   id="svg8"
   inkscape:version="0.92.3 (2405546, 2018-03-11)"
   sodipodi:docname="Logo.svg">
  <defs
     id="defs2">
    <linearGradient
       id="linearGradient30"
       inkscape:collect="always">
      <stop
         id="stop18"
         offset="0"
         style="stop-color:#8787de;stop-opacity:1" />
      <stop
         style="stop-color:#2c5aa0;stop-opacity:1"
         offset="0.08980828"
         id="stop20" />
      <stop
         id="stop22"
         offset="0.33665094"
         style="stop-color:#3f7fb3;stop-opacity:0.61568627;" />
      <stop
         style="stop-color:#d4aa00;stop-opacity:1"
         offset="0.569493"
         id="stop24" />
      <stop
         id="stop26"
         offset="0.81825078"
         style="stop-color:#5f5fd3;stop-opacity:1" />
      <stop
         id="stop28"
         offset="1"
         style="stop-color:#5fbcd3;stop-opacity:0;" />
    </linearGradient>
    <linearGradient
       inkscape:collect="always"
       id="linearGradient3743">
      <stop
         style="stop-color:#8787de;stop-opacity:1"
         offset="0"
         id="stop3739" />
      <stop
         id="stop3747"
         offset="0.08980828"
         style="stop-color:#2c5aa0;stop-opacity:1" />
      <stop
         style="stop-color:#87cdde;stop-opacity:1"
         offset="0.33706009"
         id="stop3749" />
      <stop
         id="stop3751"
         offset="0.81825078"
         style="stop-color:#939dac;stop-opacity:1" />
      <stop
         style="stop-color:#5f5fd3;stop-opacity:1"
         offset="0.81825078"
         id="stop3753" />
      <stop
         style="stop-color:#5fbcd3;stop-opacity:0;"
         offset="1"
         id="stop3741" />
    </linearGradient>
    <linearGradient
       inkscape:collect="always"
       xlink:href="#linearGradient30"
       id="linearGradient3745"
       x1="-127.00095"
       y1="90.945328"
       x2="125.08763"
       y2="42.841526"
       gradientUnits="userSpaceOnUse" />
    <linearGradient
       inkscape:collect="always"
       xlink:href="#linearGradient3743"
       id="linearGradient3755"
       gradientUnits="userSpaceOnUse"
       x1="-233.61177"
       y1="94.624268"
       x2="215.04597"
       y2="-69.795372"
       gradientTransform="matrix(3.7795276,0,0,3.7795276,535.79924,-144.49667)" />
  </defs>
  <sodipodi:namedview
     id="base"
     pagecolor="#ffffff"
     bordercolor="#666666"
     borderopacity="1.0"
     inkscape:pageopacity="0.0"
     inkscape:pageshadow="2"
     inkscape:zoom="0.49497475"
     inkscape:cx="335.59668"
     inkscape:cy="23.114512"
     inkscape:document-units="mm"
     inkscape:current-layer="layer1"
     showgrid="false"
     inkscape:window-width="1920"
     inkscape:window-height="1017"
     inkscape:window-x="-8"
     inkscape:window-y="-8"
     inkscape:window-maximized="1" />
  <metadata
     id="metadata5">
    <rdf:RDF>
      <cc:Work
         rdf:about="">
        <dc:format>image/svg+xml</dc:format>
        <dc:type
           rdf:resource="http://purl.org/dc/dcmitype/StillImage" />
        <dc:title />
      </cc:Work>
    </rdf:RDF>
  </metadata>
  <g
     inkscape:label="Calque 1"
     inkscape:groupmode="layer"
     id="layer1"
     transform="translate(0,-227)">
    <g
       aria-label="BoVoyage"
       style="font-style:normal;font-weight:normal;font-size:52.91666412px;line-height:1.25;font-family:sans-serif;letter-spacing:0px;word-spacing:0px;fill:url(#linearGradient3745);fill-opacity:1;stroke:#000080;stroke-width:1.32291663"
       id="text3719"
       transform="translate(141.76355,188.76859)">
      <path
         style="font-style:normal;font-variant:normal;font-weight:normal;font-stretch:normal;font-family:'Jelly Bean Script - DEMO';-inkscape-font-specification:'Jelly Bean Script - DEMO';fill:url(#linearGradient3755);fill-opacity:1;stroke:#216778;stroke-width:6.25388813"
         d="m 253.76172,12.898438 c -4.09346,0 -7.27664,2.199031 -9.55078,6.595703 -2.27414,4.245064 -3.86769,9.854092 -4.77735,16.828125 -0.90965,6.974029 -1.36328,14.782089 -1.36328,23.423828 0.15161,8.641736 0.53028,17.284047 1.13672,25.925781 1.08315,17.850145 5.2867,27.456285 -3.53125,37.294925 -0.30322,0.30322 -1.13747,1.28932 -2.50195,2.95703 -1.21288,1.51609 -2.88138,3.18459 -5.00391,5.0039 -2.12253,1.81932 -4.62333,3.48587 -7.5039,5.00196 -2.72898,1.36448 -5.83721,2.04687 -9.32422,2.04687 -1.06129,0 -1.51687,-0.60548 -1.36524,-1.81836 0.30322,-2.42575 0.45508,-5.08036 0.45508,-7.96093 0,-3.03219 -0.22681,-5.98857 -0.68164,-8.86915 -0.30322,-3.03218 -0.91065,-5.91165 -1.82031,-8.64062 -0.75805,-2.72897 -1.81911,-5.07986 -3.1836,-7.05078 -2.57735,-4.093456 -5.76054,-7.124784 -9.55078,-9.095704 -3.79023,-2.122533 -7.80767,-3.183594 -12.05273,-3.183594 -4.54828,0 -8.64261,1.061061 -12.28125,3.183594 -3.48702,2.122529 -6.67022,4.852092 -9.55078,8.187504 -2.72898,3.18379 -5.15484,6.82061 -7.27735,10.91406 -1.97092,3.94185 -3.63939,7.73247 -5.0039,11.37109 -1.5161,3.63863 -2.50025,7.27739 -2.95508,10.91602 -0.60636,3.63862 -0.75827,7.42925 -0.45508,11.37109 0.30319,3.94185 1.2893,7.73247 2.95703,11.3711 1.5161,3.48701 3.56134,6.59525 6.13867,9.32421 2.72898,2.72897 5.83721,4.92605 9.32422,6.59375 3.48702,1.5161 7.27765,2.27539 11.3711,2.27539 3.48701,0 6.74708,-0.68239 9.77929,-2.04687 3.18378,-1.36448 6.06326,-3.18484 8.64063,-5.45898 2.57736,-2.27415 4.85134,-4.85185 6.82226,-7.73243 1.97093,-3.03219 3.48756,-6.06351 4.54883,-9.0957 0.45481,-1.21287 0.75852,-1.89527 0.91016,-2.04687 0.30321,-0.30322 0.83375,-0.45508 1.59179,-0.45508 3.48702,0 6.97393,-0.60548 10.46094,-1.81836 3.48702,-1.21288 6.82207,-2.80447 10.00586,-4.77539 3.1838,-2.12254 6.06522,-4.54838 8.64258,-7.27735 9.61381,-10.45255 6.45614,-9.55874 8.30664,2.95508 0.60644,3.94185 1.44069,8.263 2.50195,12.96289 1.06127,4.54829 2.3511,9.17316 3.86719,13.87305 1.5161,4.54828 3.3345,8.71758 5.45703,12.50781 2.27414,3.79024 4.77494,6.82157 7.50391,9.0957 2.72897,2.42576 5.8372,3.63868 9.32422,3.63868 5.30633,0 9.47562,-1.13602 12.50781,-3.41016 3.1838,-2.27414 5.7615,-5.23051 7.73242,-8.86914 2.12253,-3.63862 3.86599,-7.80792 5.23047,-12.50781 1.51609,-4.69989 3.18459,-9.39972 5.00391,-14.09961 2.27414,-5.91277 4.54812,-11.97738 6.82226,-18.19336 2.42575,-6.21599 4.69974,-12.12874 6.82227,-17.73828 2.12253,-5.76116 4.09279,-11.06843 5.91211,-15.91993 1.97092,-4.851497 3.63942,-8.717072 5.0039,-11.597651 3.94185,-9.096562 8.263,-17.89073 12.96289,-26.38086 4.69989,-8.641733 9.47468,-17.282092 14.32618,-25.923828 1.6677,-3.032186 2.80567,-5.686796 3.41211,-7.960937 0.60642,-2.425751 0.75829,-4.470968 0.45507,-6.138672 -0.15161,-1.819314 -0.60719,-3.261 -1.36523,-4.322266 -0.75805,-1.212873 -1.5923,-2.122075 -2.50195,-2.728515 -1.66771,-1.212873 -3.48611,-1.81836 -5.45704,-1.81836 -2.12253,0 -4.54837,0.757346 -7.27734,2.273438 -2.57736,1.516094 -5.68559,4.245654 -9.32422,8.1875 -3.94184,5.30633 -7.65751,10.7635 -11.14453,16.373047 -3.48702,5.457937 -6.74516,11.143874 -9.77734,17.05664 -5.45794,11.522316 -9.93096,22.51356 -13.41797,32.97461 -3.33541,10.461054 -6.06497,19.633884 -8.1875,27.517574 -2.12253,7.88369 -3.78908,14.17512 -5.00195,18.875 -1.06127,4.6999 -2.12233,7.04883 -3.1836,7.04883 -0.75805,0 -1.51734,-2.42389 -2.27539,-7.27539 -0.60644,-4.8515 -1.28882,-11.06797 -2.04687,-18.64844 -0.75805,-7.58047 -1.5923,-15.99596 -2.50196,-25.244137 -0.75804,-9.248171 -1.59034,-18.269152 -2.5,-27.0625 -0.90965,-8.944952 -1.89576,-17.131684 -2.95703,-24.560547 -0.90965,-7.42886 -1.97072,-13.037891 -3.18359,-16.828125 -0.30322,-0.75805 -0.7588,-1.744158 -1.36524,-2.957031 -0.45482,-1.364485 -1.21217,-2.652359 -2.27343,-3.865234 -1.06127,-1.212876 -2.42605,-2.273937 -4.09375,-3.183594 -1.66771,-0.909654 -3.78983,-1.365234 -6.36719,-1.365234 z M 93.498047,13.582031 C 82.127363,13.430422 71.51477,15.173876 61.660156,18.8125 51.805542,22.451129 42.40587,27.756439 33.460938,34.730469 c -1.212901,1.061268 -2.956353,2.80472 -5.230469,5.230469 -2.274142,2.425751 -3.638897,5.382125 -4.09375,8.86914 -0.454829,2.72897 0.456327,5.002952 2.730469,6.822266 1.212875,0.758047 2.575702,1.136718 4.091796,1.136718 1.212876,0 2.350844,-0.301765 3.41211,-0.908203 0.303219,-0.151609 1.137468,-0.682137 2.501953,-1.591797 1.516094,-1.061263 3.18264,-2.199233 5.001953,-3.412109 1.819313,-1.212875 3.639696,-2.425796 5.458984,-3.638672 1.970923,-1.212873 3.714375,-2.122078 5.230469,-2.728515 0.758047,-0.303224 1.440412,-0.606943 2.046875,-0.910157 0.758047,-0.454805 1.592297,-0.758521 2.501953,-0.910156 0,0.15161 -0.151909,1.820105 -0.455078,5.003906 -0.303219,3.032187 -0.758822,7.126529 -1.365234,12.28125 -0.606463,5.00311 -1.288828,10.838953 -2.046875,17.509766 -0.606413,6.670813 -1.363756,13.644621 -2.273438,20.921875 -0.758047,7.12564 -1.517343,14.32822 -2.27539,21.60547 -0.758048,7.27725 -1.43851,14.0992 -2.044922,20.4668 -0.606463,6.36759 -1.138922,11.97662 -1.59375,16.82812 -0.454753,4.8515 -0.756518,8.49027 -0.908203,10.91602 0,2.12253 -0.378672,3.18359 -1.136719,3.18359 -0.303194,0 -1.062515,-0.15187 -2.275391,-0.45508 -1.516094,-0.45483 -3.182639,-1.13722 -5.001953,-2.04687 -1.819338,-0.90967 -3.412884,-1.51515 -4.777344,-1.81836 -2.122557,0 -4.015915,0.45557 -5.683593,1.36523 -1.667654,0.90966 -2.578784,2.5762 -2.730469,5.00195 -0.151584,1.66771 0.152109,3.56302 0.910156,5.68555 1.36446,2.72897 3.18289,5.00295 5.457031,6.82227 2.425752,1.97092 5.080333,3.48756 7.960938,4.54883 3.032189,1.06126 6.063514,1.8186 9.095703,2.27343 3.183798,0.45483 6.140196,0.6836 8.869141,0.6836 7.732082,0 15.540136,-1.13797 23.423828,-3.41211 8.035301,-2.12253 15.616568,-5.23077 22.742191,-9.32422 7.12567,-3.94185 13.49203,-8.79353 19.10156,-14.55469 5.76116,-5.76116 10.23414,-12.27939 13.41797,-19.55664 1.6677,-4.09345 2.80569,-8.1878 3.41211,-12.28125 0.60636,-4.24506 0.52953,-8.56622 -0.22852,-12.96289 -0.45483,-2.72897 -1.364,-5.45658 -2.72851,-8.18555 -1.21288,-2.88057 -2.8814,-5.53518 -5.00391,-7.96093 -1.97092,-2.57737 -4.39676,-4.77444 -7.27734,-6.593754 -2.88058,-1.819314 -6.21563,-3.109143 -10.00586,-3.867188 -1.36451,-0.303221 -2.72929,-0.530031 -4.09375,-0.68164 -1.21288,-0.303227 -2.50075,-0.606945 -3.86524,-0.910157 -0.30327,-0.151634 -0.60699,-0.226562 -0.91015,-0.226562 -0.30325,0 -0.60697,-0.228766 -0.91016,-0.683594 0.30322,-0.606443 0.68384,-1.06007 1.13867,-1.363281 0.60644,-0.303219 1.21192,-0.681888 1.81836,-1.136719 2.12253,-1.667701 4.1697,-3.184343 6.14063,-4.548828 2.12253,-1.516092 4.09279,-3.18459 5.91211,-5.003906 3.48701,-3.183796 6.52029,-6.593795 9.09765,-10.232422 2.57734,-3.790234 4.47072,-8.036435 5.68359,-12.736328 2.12256,-7.73208 1.89575,-14.780844 -0.68164,-21.148438 -2.42572,-6.519206 -7.04864,-11.826472 -13.87109,-15.919922 -6.97401,-4.396674 -14.85897,-6.59375 -23.652343,-6.59375 z m -6.367188,21.830078 c 2.880605,0 5.836952,0.380622 8.869141,1.138672 3.183798,0.606438 5.83645,1.971218 7.95898,4.09375 1.66771,1.819311 2.27515,3.864533 1.82032,6.138672 -0.60644,3.48702 -2.27494,6.747111 -5.00391,9.779297 -2.577335,3.032186 -5.153082,5.684843 -7.730468,7.958984 -0.909632,0.909657 -2.047599,1.895765 -3.41211,2.957032 -1.364459,1.061266 -2.729239,2.12233 -4.09375,3.183593 -1.364459,1.061269 -2.577405,1.895518 -3.638671,2.501953 -0.909707,0.606438 -1.515191,0.910157 -1.81836,0.910157 -0.303193,-0.758045 -0.303193,-1.896013 0,-3.41211 0,-1.97092 -0.07683,-4.623576 -0.228515,-7.958984 0,-3.335405 -0.07488,-6.670452 -0.226563,-10.005859 0,-3.487015 -0.07683,-6.595247 -0.228515,-9.324219 -0.15166,-2.728968 -0.378473,-4.472422 -0.681641,-5.230469 -0.303194,-0.909654 -0.455078,-1.440187 -0.455078,-1.591797 0.151609,-0.303193 0.68214,-0.531959 1.591797,-0.683593 1.212875,-0.151635 2.425796,-0.226563 3.638672,-0.226563 1.2129,-0.151609 2.425846,-0.228516 3.638671,-0.228516 z M 728.62891,81.351562 c -7.27725,0 -13.79744,1.666548 -19.5586,5.001954 -5.60954,3.183801 -10.45928,7.353093 -14.55273,12.507812 -3.94185,5.154722 -7.05008,10.992522 -9.32422,17.511722 -2.27414,6.5192 -3.63892,13.03743 -4.09375,19.55664 -0.30322,5.00311 0.22731,9.85479 1.5918,14.55469 1.21287,4.54828 3.48685,8.79448 6.82226,12.73632 2.57736,3.1838 6.13922,5.91141 10.6875,8.18555 4.69989,2.12253 9.55158,3.18359 14.55469,3.18359 4.8515,0 9.70318,-1.06106 14.55469,-3.18359 5.00311,-2.27414 9.70293,-5.07866 14.09961,-8.41406 4.54828,-3.33541 8.71757,-6.89727 12.50781,-10.6875 3.94184,-3.94185 7.3538,-7.58061 10.23437,-10.91602 2.88058,-3.48702 5.15457,-6.36843 6.82227,-8.64258 1.6677,-2.42572 2.50195,-3.7136 2.50195,-3.86523 0.75805,-3.33541 -0.22806,-5.45753 -2.95703,-6.36719 -0.45482,-0.15163 -0.98536,-0.22851 -1.5918,-0.22851 -1.97092,0 -3.56251,0.98611 -4.77539,2.95703 -0.1516,0.45483 -1.21266,1.81961 -3.18359,4.09375 -1.97092,2.27414 -4.62357,5.00175 -7.95898,8.18554 -3.1838,3.1838 -6.97442,6.51885 -11.3711,10.00586 -4.24506,3.33541 -8.79303,6.29178 -13.64453,8.86914 -1.36449,0.75805 -2.80617,1.36549 -4.32226,1.82032 -1.5161,0.30321 -2.95583,0.45508 -4.32032,0.45508 -4.24506,0 -7.20143,-1.5916 -8.86914,-4.7754 -1.51609,-3.18379 -2.35034,-6.6707 -2.50195,-10.46093 0,-0.90966 0.37867,-1.36524 1.13672,-1.36524 h 0.68359 c 1.5161,0.30321 2.65211,0.45508 3.41016,0.45508 3.3354,0 6.5955,-0.7593 9.77929,-2.27539 3.1838,-1.51609 6.14018,-3.40945 8.86915,-5.68359 2.72897,-2.42575 5.15481,-5.08036 7.27734,-7.96094 2.27414,-2.88058 4.01759,-5.6851 5.23047,-8.41406 1.21288,-3.0322 2.04712,-6.14043 2.50195,-9.32422 0.60644,-3.1838 0.60644,-6.44194 0,-9.777346 -0.75805,-5.306328 -3.03203,-9.552527 -6.82226,-12.736328 -3.63863,-3.335406 -8.11164,-5.001954 -13.41797,-5.001954 z m -164.61329,9.777344 c -1.81931,0 -3.63967,0.45558 -5.45898,1.365235 -1.97092,0.909656 -3.63942,2.19753 -5.00391,3.865234 -1.21287,1.516094 -2.27393,3.032736 -3.18359,4.548825 -0.75805,1.36449 -1.36353,2.65236 -1.81836,3.86524 -0.30322,1.06127 -0.60694,1.59375 -0.91016,1.59375 -0.1516,-0.15161 -0.68214,-0.75905 -1.59179,-1.82031 -0.75805,-1.21288 -1.89407,-2.50075 -3.41016,-3.86524 -1.51609,-1.364482 -3.4114,-2.577405 -5.68555,-3.638671 -2.12252,-1.061266 -4.70023,-1.591797 -7.73242,-1.591797 -4.69989,0 -9.02104,1.212921 -12.96289,3.638672 -3.94184,2.274146 -7.42874,5.230516 -10.46093,8.869136 -3.03219,3.63863 -5.60989,7.65606 -7.73243,12.05274 -1.97092,4.39667 -3.48756,8.64092 -4.54883,12.73437 -1.21287,4.24507 -1.59154,8.56622 -1.13671,12.96289 0.15161,2.72897 0.68214,5.45853 1.59179,8.1875 0.90966,2.72897 2.19949,5.22977 3.86719,7.50391 1.66771,2.12253 3.63797,3.86599 5.91211,5.23047 2.42575,1.21288 5.23027,1.82031 8.41406,1.82031 5.76116,0 10.7647,-1.74345 15.00977,-5.23047 4.24506,-3.48701 7.95878,-7.35454 11.14258,-11.59961 0.15161,2.88058 0.53028,5.91386 1.13671,9.09766 0.75805,3.03219 1.82107,5.7598 3.18555,8.18555 1.51609,2.42575 3.48636,4.47292 5.91211,6.14062 2.42575,1.5161 5.38212,2.27539 8.86914,2.27539 4.39667,0 8.56597,-1.36478 12.50781,-4.09375 6.06438,-4.09345 11.52155,-8.49151 16.37305,-13.1914 5.00311,-4.8515 9.24931,-9.39947 12.73633,-13.64454 0.45372,-0.52934 0.85541,-1.02076 1.2832,-1.53124 0.21727,2.31555 0.62228,4.86522 1.23242,7.67187 0.75805,3.33541 1.89406,6.51859 3.41016,9.55078 1.6677,2.88058 3.71487,5.30642 6.14063,7.27735 2.42574,1.97089 5.30717,3.03195 8.64257,3.18359 1.36449,0 2.65236,-0.14991 3.86524,-0.45313 1.21287,-0.45482 2.4258,-0.9104 3.63867,-1.36523 0.45483,-0.30322 1.28908,-0.91066 2.50195,-1.82031 1.36449,-0.90966 2.72927,-1.89382 4.09375,-2.95508 1.5161,-1.21288 2.80397,-2.19899 3.86524,-2.95703 l 1.82031,-1.36524 c 0.15161,0.30322 0.0747,1.36624 -0.22852,3.18555 -0.30321,1.81931 -0.75684,3.86453 -1.36328,6.13867 -0.45483,2.27414 -0.9104,4.39822 -1.36523,6.36914 -0.45483,1.97093 -0.68164,3.2588 -0.68164,3.86524 -0.45483,1.21287 -1.28908,1.89526 -2.50196,2.04687 -10.46104,1.06127 -19.40707,3.86578 -26.83593,8.41406 -7.27725,4.54829 -12.80938,12.12953 -16.59961,22.74219 -2.57736,7.27725 -2.88108,14.93345 -0.91016,22.96875 1.36449,5.30633 4.09209,9.92925 8.18555,13.8711 4.09345,3.94184 9.02205,5.91406 14.7832,5.91406 h 2.27344 c 0.75804,0 1.51734,-0.15186 2.27539,-0.45508 6.21599,-1.36449 11.5213,-4.169 15.91797,-8.41406 4.39667,-4.09346 8.03544,-8.94514 10.91601,-14.55469 3.03219,-5.60954 5.45803,-11.5223 7.27735,-17.73828 1.97092,-6.21599 3.48756,-11.97688 4.54883,-17.2832 0.30322,-1.66771 1.28737,-2.50196 2.95507,-2.50196 l 9.55274,0.68164 c 1.21287,0 2.19703,-0.22681 2.95508,-0.68164 0.90965,-0.45483 1.51709,-1.36403 1.82031,-2.72851 0.45483,-2.72897 -0.60623,-5.15481 -3.18359,-7.27735 -1.81932,-1.66771 -3.79154,-2.65382 -5.91407,-2.95703 -2.12253,-0.30322 -3.63722,-0.83375 -4.54687,-1.5918 3.79023,-18.64795 7.20023,-37.67602 10.23242,-57.08203 l 0.91016,-6.82226 c 0.30322,-2.42575 0.45507,-4.8516 0.45507,-7.27735 0,-2.27414 -0.68239,-4.62307 -2.04687,-7.04882 -1.21288,-2.42575 -3.18314,-3.638676 -5.91211,-3.638676 -1.06127,0 -1.97242,0.303716 -2.73047,0.910156 -1.21287,0.90966 -2.04517,2.04567 -2.5,3.41016 -0.45483,1.21287 -1.13722,2.19898 -2.04687,2.95703 -0.45483,-0.30322 -0.75855,-0.68189 -0.91016,-1.13672 -0.15161,-0.45484 -0.37842,-0.83546 -0.68164,-1.13867 -2.27414,-3.63863 -5.23051,-6.669954 -8.86914,-9.095706 -3.48702,-2.577358 -7.4295,-3.865234 -11.82617,-3.865234 -4.24507,0 -8.11064,1.136015 -11.59766,3.410156 -3.33541,2.122533 -6.29178,4.852094 -8.86914,8.187504 -2.57736,3.3354 -4.77639,7.04912 -6.5957,11.14257 -1.51328,3.57683 -2.69682,6.95782 -3.58594,10.16016 -0.39763,0.28868 -0.79798,0.61299 -1.20313,0.98438 -0.30321,0.45482 -2.12357,2.34818 -5.45898,5.68359 -3.33541,3.1838 -7.04913,6.74761 -11.14258,10.68945 -4.09345,3.79024 -8.03594,7.27714 -11.82617,10.46094 -3.79024,3.03219 -6.36794,4.54883 -7.73242,4.54883 -1.36448,0 -2.12182,-0.7593 -2.27344,-2.27539 0,-1.5161 0.22681,-3.41141 0.68164,-5.68555 0.45483,-2.27414 1.06226,-4.69803 1.82031,-7.27539 0.90966,-2.57736 1.667,-4.8533 2.27344,-6.82422 1.21288,-4.09345 2.35085,-8.11089 3.41211,-12.05273 1.06127,-4.09346 1.97047,-8.26275 2.72852,-12.50782 0.30321,-1.81931 0.45507,-3.56276 0.45507,-5.23046 0.15162,-1.81932 -2.5e-4,-3.63772 -0.45507,-5.457036 -0.75805,-2.72897 -1.97097,-4.851093 -3.63868,-6.367187 -1.6677,-1.516092 -3.63796,-2.275391 -5.91211,-2.275391 z m -198.14257,0.228516 c -4.54828,0 -8.64262,1.061061 -12.28125,3.183594 -3.48702,2.122529 -6.67021,4.852092 -9.55078,8.187504 -2.72897,3.18379 -5.15482,6.82061 -7.27735,10.91406 -1.97092,3.94185 -3.63747,7.73247 -5.00195,11.37109 -1.5161,3.63863 -2.50221,7.27739 -2.95703,10.91602 -0.60643,3.63862 -0.75829,7.42925 -0.45508,11.37109 0.30322,3.94185 1.28933,7.73247 2.95703,11.3711 1.5161,3.48701 3.56327,6.59525 6.14063,9.32421 2.72897,2.72897 5.83524,4.92605 9.32226,6.59375 3.48702,1.5161 7.27764,2.27539 11.37109,2.27539 3.48702,0 6.74712,-0.68239 9.7793,-2.04687 3.1838,-1.36448 6.06522,-3.18484 8.64258,-5.45898 2.57736,-2.27415 4.85134,-4.85185 6.82227,-7.73243 1.97092,-3.03219 3.48561,-6.06351 4.54687,-9.0957 0.4548,-1.21287 0.75852,-1.89527 0.91016,-2.04687 0.30322,-0.30322 0.83375,-0.45508 1.59179,-0.45508 3.48702,0 6.97392,-0.60548 10.46094,-1.81836 3.48702,-1.21288 6.82206,-2.80447 10.00586,-4.77539 1.52862,-1.01908 2.98422,-2.11261 4.37305,-3.27149 0.007,0.77096 0.0259,1.55471 0.0684,2.36133 0.1516,2.72897 0.53223,5.53348 1.13867,8.41406 0.60644,2.72897 1.51564,5.38163 2.72851,7.95899 1.21288,2.42575 2.80447,4.47292 4.7754,6.14062 3.03218,2.57736 6.14042,3.86524 9.32421,3.86524 2.27415,0 4.54813,-0.75734 6.82227,-2.27344 2.42575,-1.5161 4.69974,-3.3345 6.82226,-5.45703 2.12254,-2.27414 4.01785,-4.62503 5.68555,-7.05078 1.66771,-2.42575 3.03249,-4.54788 4.09375,-6.36719 -0.45483,3.48702 -0.9104,6.89702 -1.36523,10.23242 -0.45483,2.88058 -0.90846,5.91386 -1.36328,9.09766 -0.45483,3.03219 -0.91041,5.68484 -1.36524,7.95898 -0.15161,1.21289 -0.834,1.97218 -2.04687,2.27539 -3.79024,1.21288 -7.58086,2.50075 -11.3711,3.86524 -3.63862,1.51609 -7.20048,3.25954 -10.6875,5.23047 -3.48701,1.97092 -6.7471,4.2449 -9.77929,6.82226 -2.88058,2.57736 -5.38138,5.61064 -7.50391,9.09766 -3.79023,6.06438 -5.23192,12.58261 -4.32227,19.55664 0.30322,2.42575 1.06252,4.85159 2.27539,7.27734 1.06127,2.42575 2.57596,4.62477 4.54688,6.5957 1.81931,1.97093 3.94339,3.56252 6.36914,4.7754 2.57736,1.21285 5.38188,1.81836 8.41406,1.81836 6.21599,0 11.5982,-1.81843 16.14649,-5.45704 4.54828,-3.63863 8.48881,-8.18659 11.82422,-13.64453 3.3354,-5.30633 5.99001,-11.06917 7.96093,-17.28515 2.12254,-6.06438 3.78908,-11.67341 5.00196,-16.82813 0.45483,-1.51609 1.28907,-2.35034 2.50195,-2.50195 2.12253,-0.30322 3.56227,-1.36428 4.32031,-3.1836 0.75805,-1.81931 0.60619,-3.71462 -0.45508,-5.68554 -0.45482,-1.06128 -0.98535,-1.74171 -1.59179,-2.04492 -1.21288,-0.75805 -1.59155,-1.97097 -1.13672,-3.63868 1.6677,-9.8546 3.10939,-19.8617 4.32226,-30.01953 1.21289,-10.15783 1.97023,-20.23987 2.27344,-30.24609 0.15161,-1.81931 0.15161,-3.63772 0,-5.45703 -0.15161,-1.97093 -0.60719,-3.79128 -1.36523,-5.45899 -1.36449,-3.790231 -3.86528,-5.685544 -7.50391,-5.685544 -1.36449,0 -2.57741,0.455578 -3.63867,1.365235 -0.90966,0.758044 -1.74391,1.7422 -2.50195,2.955078 -0.60644,1.061261 -1.21193,2.274181 -1.81836,3.638671 -0.45484,1.21287 -0.83546,2.35084 -1.13867,3.41211 -1.36449,4.09345 -2.80422,8.18584 -4.32032,12.2793 -1.51609,4.09345 -3.3345,8.11284 -5.45703,12.05468 -0.75805,1.36449 -1.74416,3.03103 -2.95703,5.00196 -1.21287,1.97092 -2.50075,3.86623 -3.86523,5.68554 -1.36449,1.81932 -2.72927,3.41091 -4.09375,4.77539 -1.21288,1.21288 -2.19899,1.82032 -2.95704,1.82032 -0.90967,0 -1.28835,-1.5916 -1.13671,-4.77539 0.30321,-3.33541 0.83375,-7.12603 1.59179,-11.3711 0.75805,-4.39667 1.5923,-8.64287 2.50196,-12.73633 0.90965,-4.24506 1.51514,-7.35329 1.81836,-9.32421 0.1516,-1.36449 0.22851,-2.80422 0.22851,-4.32032 0,-1.6677 -0.22876,-3.25929 -0.68359,-4.77539 -0.30322,-1.667698 -0.90871,-3.107431 -1.81836,-4.320309 -0.90966,-1.364483 -2.12258,-2.273685 -3.63867,-2.728516 -0.90966,-0.303211 -1.59205,-0.455078 -2.04688,-0.455078 -3.03219,0 -5.76175,1.743451 -8.1875,5.230469 -2.27414,3.487014 -4.24441,7.579404 -5.91211,12.279294 -1.49308,4.47925 -2.68883,8.95826 -3.59375,13.4375 -0.37342,0.44588 -0.76369,0.91343 -1.30273,1.57227 -1.21288,1.51609 -2.88138,3.18459 -5.00391,5.0039 -2.12253,1.81932 -4.62333,3.48587 -7.50391,5.00196 -2.72896,1.36448 -5.8372,2.04687 -9.32421,2.04687 -1.0613,0 -1.51687,-0.60548 -1.36524,-1.81836 0.30321,-2.42575 0.45508,-5.08036 0.45508,-7.96093 0,-3.03219 -0.22681,-5.98857 -0.68164,-8.86915 -0.30322,-3.03218 -0.90871,-5.91165 -1.81836,-8.64062 -0.75805,-2.72897 -1.82106,-5.07986 -3.18555,-7.05078 -2.57736,-4.093456 -5.76055,-7.124784 -9.55078,-9.095704 -3.79023,-2.122533 -7.80767,-3.183594 -12.05273,-3.183594 z m 361.61914,13.644528 c 1.06127,0 1.74366,0.53053 2.04687,1.5918 0.30322,1.06126 0.45508,1.97047 0.45508,2.72852 0,1.97092 -0.53248,4.09304 -1.59375,6.36718 -0.90965,2.27414 -2.12062,4.39822 -3.63672,6.36914 -1.36448,1.97092 -3.03298,3.63747 -5.0039,5.00196 -1.97093,1.21287 -4.0181,1.82031 -6.14063,1.82031 -1.51609,0 -2.04662,-0.91116 -1.5918,-2.73047 0.45483,-1.36448 1.13722,-3.18289 2.04688,-5.45703 1.06126,-2.42575 2.27419,-4.77664 3.63867,-7.05078 1.36448,-2.42575 2.88112,-4.47097 4.54883,-6.13867 1.6677,-1.66771 3.41116,-2.50196 5.23047,-2.50196 z m -87.73438,7.27735 c 3.03219,0 4.9275,2.12212 5.68555,6.36718 0,1.5161 -0.0769,3.10769 -0.22852,4.7754 0,1.51609 -0.53053,2.95778 -1.59179,4.32226 -1.66771,2.12253 -3.41116,4.24466 -5.23047,6.36719 -1.66771,2.12253 -3.48611,4.16775 -5.45703,6.13867 -0.75805,0.75805 -1.97097,1.74416 -3.63867,2.95703 -1.5161,1.06127 -2.80397,1.5918 -3.86524,1.5918 -0.90966,0 -1.51709,-0.45363 -1.82031,-1.36328 -0.15161,-1.06127 -0.15161,-2.12428 0,-3.18555 0.15161,-1.21287 0.37842,-2.34889 0.68164,-3.41016 0.30322,-1.21284 0.45508,-1.89524 0.45508,-2.04687 0.45483,-1.21288 1.21412,-3.03128 2.27539,-5.45703 1.06126,-2.57736 2.27418,-5.08011 3.63867,-7.50586 1.36448,-2.57736 2.80422,-4.77444 4.32031,-6.59375 1.66771,-1.97092 3.2593,-2.95703 4.77539,-2.95703 z m -559.904294,1.13672 h 1.136718 c 2.880605,0.15161 6.140696,0.53027 9.779297,1.13671 3.638627,0.45483 6.821811,0.91041 9.550779,1.36524 1.66771,0.30322 3.3362,0.98561 5.00391,2.04687 1.6677,0.90966 3.03248,2.19753 4.09375,3.86524 1.21287,1.51609 2.04712,3.33645 2.50195,5.45898 0.60652,1.97093 0.68139,4.168 0.22656,6.59375 -1.06126,4.8515 -3.10843,9.24957 -6.14062,13.19141 -3.03219,3.94184 -6.670952,7.42875 -10.916016,10.46094 -4.093455,3.03219 -8.564514,5.60793 -13.416016,7.73046 -4.699893,2.12254 -9.249835,3.71609 -13.646484,4.77735 h -0.681641 c -0.758123,0 -1.061841,-0.60744 -0.910156,-1.82031 0.303244,-1.5161 0.910681,-4.62433 1.820312,-9.32422 1.061267,-4.6999 2.197281,-9.77839 3.410157,-15.23633 1.212875,-5.60955 2.273937,-10.91486 3.183593,-15.91797 1.061292,-5.00311 1.743682,-8.56692 2.046875,-10.68945 0.303144,-1.66771 0.531909,-2.65382 0.683594,-2.95703 0.303219,-0.45483 1.060562,-0.68164 2.273438,-0.68164 z m 453.232424,0.68164 c 0.30322,0 0.75879,0.15186 1.36523,0.45507 0.90964,0.90966 1.44018,2.19949 1.5918,3.86719 0.30321,1.51609 0.30321,3.10769 0,4.77539 -0.15161,1.66771 -0.45533,3.33425 -0.91016,5.00196 -0.45483,1.51609 -1.06031,2.65406 -1.81836,3.41211 -0.90965,1.06126 -2.04762,2.65285 -3.41211,4.77539 -1.36448,2.12253 -2.88112,4.1697 -4.54882,6.14062 -1.5161,1.97093 -3.18264,3.71438 -5.00196,5.23047 -1.6677,1.51609 -3.2593,2.27344 -4.77539,2.27344 -1.21286,0 -1.89525,-0.98416 -2.04687,-2.95508 -0.15161,-1.97092 0.0752,-4.32181 0.68164,-7.05078 0.75804,-2.72897 1.74416,-5.61039 2.95703,-8.64258 1.36449,-3.03219 2.87917,-5.68484 4.54687,-7.95898 2.72898,-3.48702 5.00491,-5.91286 6.82422,-7.27735 1.81932,-1.36448 3.334,-2.04687 4.54688,-2.04687 z m -345.39453,1.13867 c 1.3645,0 2.34865,0.22681 2.95507,0.68164 0.75813,0.45483 1.28865,0.98536 1.5918,1.5918 0.30321,0.60644 0.45508,1.36378 0.45508,2.27343 -3.487,1.21288 -5.98781,3.1851 -7.50391,5.91407 -1.36444,2.72897 -1.51633,5.91215 -0.45507,9.55078 0.90966,3.79023 2.95681,6.97342 6.14062,9.55078 1.36448,0.90965 1.59128,1.97072 0.68164,3.18359 -1.21288,2.27414 -2.88136,4.62503 -5.00391,7.05078 -2.12251,2.42575 -4.69828,3.63868 -7.73046,3.63868 -2.12255,0 -3.79103,-1.06107 -5.00391,-3.1836 -1.06129,-2.12253 -1.7437,-4.77714 -2.04688,-7.96094 -0.15162,-3.3354 0.0752,-6.82231 0.68164,-10.46093 0.60643,-3.79024 1.59256,-7.27715 2.95704,-10.46094 1.3645,-3.33541 3.03297,-6.06302 5.0039,-8.18555 2.12252,-2.12253 4.54837,-3.18359 7.27735,-3.18359 z m 182.73047,0 c 1.36448,0 2.34864,0.22681 2.95507,0.68164 0.75806,0.45483 1.28859,0.98536 1.5918,1.5918 0.30321,0.60644 0.45508,1.36378 0.45508,2.27343 -3.48702,1.21288 -5.98781,3.1851 -7.50391,5.91407 -1.36448,2.72897 -1.51634,5.91215 -0.45508,9.55078 0.90966,3.79023 2.95683,6.97342 6.14063,9.55078 1.36448,0.90965 1.59129,1.97072 0.68164,3.18359 -1.21288,2.27414 -2.87942,4.62503 -5.00195,7.05078 -2.12253,2.42575 -4.70023,3.63868 -7.73243,3.63868 -2.12253,0 -3.79103,-1.06107 -5.0039,-3.1836 -1.06127,-2.12253 -1.74367,-4.77714 -2.04688,-7.96094 -0.15161,-3.3354 0.0772,-6.82231 0.6836,-10.46093 0.60643,-3.79024 1.59059,-7.27715 2.95507,-10.46094 1.36449,-3.33541 3.03299,-6.06302 5.00391,-8.18555 2.12253,-2.12253 4.54838,-3.18359 7.27735,-3.18359 z m 76.98632,79.59375 c -1.21287,3.03218 -2.50075,5.98856 -3.86523,8.86914 -1.06127,2.57736 -2.27419,5.08011 -3.63867,7.50586 -1.36449,2.57736 -2.80617,4.69948 -4.32227,6.36719 -3.63863,4.39667 -6.89677,6.59375 -9.77734,6.59375 -2.57736,0 -3.86719,-2.27399 -3.86719,-6.82227 0,-2.12253 0.68239,-4.24466 2.04688,-6.36719 1.51609,-1.97092 3.03273,-3.63942 4.54882,-5.0039 1.36449,-1.21288 3.03103,-2.42384 5.00196,-3.63672 2.12253,-1.21288 4.2466,-2.4258 6.36914,-3.63867 2.42575,-1.36449 4.92655,-2.65432 7.5039,-3.86719 z m 184.39063,2.50195 c -0.15161,3.1838 -0.91091,7.12628 -2.27539,11.82617 -1.36449,4.85151 -3.18289,9.47442 -5.45703,13.8711 -2.27415,4.54828 -5.00371,8.41384 -8.1875,11.59765 -3.03219,3.1838 -6.36724,4.77735 -10.00586,4.77735 -3.1838,0 -5.07911,-2.50274 -5.68555,-7.50586 -0.30319,-2.42575 -0.22631,-4.69974 0.22852,-6.82227 0.45483,-2.12253 1.06031,-4.0928 1.81836,-5.91211 2.57735,-6.36759 6.44293,-11.44609 11.59765,-15.23633 5.15472,-3.63862 11.14438,-5.83765 17.9668,-6.5957 z"
         transform="matrix(0.26458333,0,0,0.26458333,-141.76355,38.23141)"
         id="path3735"
         inkscape:connector-curvature="0"
         sodipodi:nodetypes="sccccccccscsccccscccccscccscccccsscccccccsccccccccccccccscccccscscscccccccscsccccsccsccccccccscccscccccccccsccccccccscccsccccccccccscccccccccccccccccssccsccccscccccccsccccccsccscscccccccssccccccccsccccccccssccccsccccccccccccccccccccccsssccccccccccccccscsccccccsccccccccscscccccccsscccccccccscccccssccccccscccccccccsccccccscccccccccccccscccccccsssccccscccsccccccscsccccsscscccsccccssccccscscccccccsscccccccscccsccccccssccccccccscccccssccccccccscccccsscscccccsscccccsccccsscccccccccscsccc" />
    </g>
  </g>
</svg>
